<?xml version="1.0" encoding="UTF-8" standalone="no"?>
<!-- Created with Inkscape (http://www.inkscape.org/) -->

<svg
   width="355.82623mm"
   height="43.840302mm"
   viewBox="0 0 355.82623 43.840301"
   version="1.1"
   id="svg5"
   xml:space="preserve"
   xmlns:xlink="http://www.w3.org/1999/xlink"
   xmlns="http://www.w3.org/2000/svg"
   xmlns:svg="http://www.w3.org/2000/svg"><defs
     id="defs2"><linearGradient
       id="linearGradient61216"><stop
         style="stop-color:#ffb6ff;stop-opacity:1;"
         offset="0"
         id="stop61212" /><stop
         style="stop-color:#b344ff;stop-opacity:1;"
         offset="1"
         id="stop61214" /></linearGradient><linearGradient
       xlink:href="#linearGradient61216"
       id="linearGradient68802"
       gradientUnits="userSpaceOnUse"
       x1="-1057.8785"
       y1="458.8819"
       x2="-1057.8785"
       y2="492.92651"
       gradientTransform="translate(0,269.6324)" /></defs><g
     id="layer1"
     transform="translate(182.59956,-1021.6483)"><g
       id="g57190"
       style="fill:#000000;fill-opacity:1"><g
         aria-label=" MacBook Pro"
         id="text5679"
         style="font-weight:600;font-size:57.5176px;font-family:'SF Pro Display';-inkscape-font-specification:'SF Pro Display Semi-Bold';letter-spacing:-1.72552px;fill:#0f0f0f;fill-rule:evenodd;stroke-width:15.4707;stroke-linecap:square;stop-color:#000000"><path
           d="m -158.47474,1028.6133 c 1.34807,-1.6289 2.30295,-3.8476 2.30295,-6.0944 0,-0.3089 -0.0281,-0.6179 -0.0843,-0.8706 -2.19061,0.084 -4.83058,1.4604 -6.40332,3.314 -1.23573,1.4042 -2.38721,3.651 -2.38721,5.8978 0,0.337 0.0562,0.674 0.0843,0.7863 0.14042,0.028 0.3651,0.056 0.58978,0.056 1.96593,0 4.43739,-1.32 5.8978,-3.0893 z m 1.54466,3.5668 c -3.28592,0 -5.95397,1.994 -7.66714,1.994 -1.82551,0 -4.21272,-1.8817 -7.07736,-1.8817 -5.42036,0 -10.92498,4.4936 -10.92498,12.9471 0,5.2799 2.02211,10.8407 4.54974,14.4355 2.16252,3.0332 4.0442,5.5327 6.76842,5.5327 2.69614,0 3.8757,-1.7974 7.21779,-1.7974 3.39826,0 4.15655,1.7413 7.13353,1.7413 2.9489,0 4.91483,-2.6962 6.76843,-5.3642 2.07827,-3.0613 2.9489,-6.0382 2.97698,-6.1787 -0.1685,-0.056 -5.81354,-2.3591 -5.81354,-8.8186 0,-5.5889 4.43739,-8.0884 4.69015,-8.285 -2.92081,-4.2127 -7.38629,-4.325 -8.62202,-4.325 z"
           style="font-weight:500;-inkscape-font-specification:'SF Pro Display Medium'"
           id="path5738" /><path
           d="m -133.27932,1064.8988 h 5.72929 v -29.9103 h 0.1966 l 12.21687,29.9103 h 4.66207 l 12.216876,-29.9103 h 0.196593 v 29.9103 h 5.729293 v -40.5263 h -7.24587 l -13.143672,32.3536 h -0.16851 l -13.11558,-32.3536 h -7.27396 z"
           style="font-weight:500;-inkscape-font-specification:'SF Pro Display Medium'"
           id="path5740" /><path
           d="m -79.397006,1065.4324 c 3.903782,0 7.330124,-2.0221 9.043295,-5.1957 h 0.112339 v 4.6621 h 6.094394 v -20.3615 c 0,-5.9258 -4.577817,-9.7454 -11.795602,-9.7454 -7.273954,0 -11.683263,3.9038 -12.104534,8.9872 l -0.02809,0.3089 h 5.729292 l 0.05617,-0.2528 c 0.505526,-2.3591 2.668053,-4.0161 6.178648,-4.0161 3.763359,0 5.869717,1.9659 5.869717,5.2238 v 2.2187 l -8.032244,0.4774 c -6.993106,0.4213 -10.981143,3.5668 -10.981143,8.7063 v 0.056 c 0,5.308 3.959952,8.9309 9.857753,8.9309 z m -3.735274,-9.0714 v -0.056 c 0,-2.4996 2.022103,-4.1004 5.673123,-4.3251 l 7.217785,-0.4493 v 2.3029 c 0,3.8476 -3.229749,6.7403 -7.498633,6.7403 -3.257833,0 -5.392275,-1.6289 -5.392275,-4.2127 z"
           style="font-weight:500;-inkscape-font-specification:'SF Pro Display Medium'"
           id="path5742" /><path
           d="m -47.308466,1065.4886 c 7.105445,0 12.048364,-4.5497 12.694314,-10.4756 l 0.02808,-0.1966 h -5.841632 l -0.02808,0.2247 c -0.730204,3.2016 -3.117409,5.3641 -6.852683,5.3641 -4.690156,0 -7.807565,-3.7914 -7.807565,-10.2509 v -0.028 c 0,-6.3191 3.061239,-10.2509 7.77948,-10.2509 3.959952,0 6.206733,2.4434 6.852683,5.3361 l 0.05617,0.2247 h 5.785462 l -0.02808,-0.1966 c -0.505525,-5.5608 -5.111427,-10.4476 -12.722399,-10.4476 -8.42543,0 -13.930044,5.9259 -13.930044,15.2781 v 0.028 c 0,9.4646 5.392275,15.3905 14.014299,15.3905 z"
           style="font-weight:500;-inkscape-font-specification:'SF Pro Display Medium'"
           id="path5744" /><path
           d="m -31.28441,1064.8988 h 16.26108 c 8.6220228,0 13.8177046,-4.3251 13.8177046,-11.4305 v -0.056 c 0,-5.3361 -3.7352739,-9.296 -9.4926506,-9.8858 v -0.1123 c 4.2688841,-0.6179 7.4986322,-4.5779 7.4986322,-8.8467 v -0.056 c 0,-6.1225 -4.7182407,-10.1386 -11.9079412,-10.1386 H -31.28441 Z m 14.660248,-35.3868 c 4.549732,0 7.1616153,2.0502 7.1616153,5.7574 v 0.056 c 0,4.0723 -3.0050703,6.3191 -8.5658533,6.3191 h -6.965022 v -12.1326 z m -0.112339,16.9913 c 6.01014,0 9.0994641,2.2468 9.0994641,6.5999 v 0.056 c 0,4.325 -3.0331551,6.5999 -8.6781931,6.5999 h -8.678192 v -13.256 z"
           style="font-weight:500;-inkscape-font-specification:'SF Pro Display Medium'"
           id="path5746" /><path
           d="m 14.453321,1065.4886 c 8.453515,0 14.014298,-5.8416 14.014298,-15.3624 v -0.056 c 0,-9.4645 -5.616953,-15.2781 -14.042383,-15.2781 -8.3973448,0 -13.98621327,5.8417 -13.98621327,15.2781 v 0.056 c 0,9.4927 5.53269897,15.3624 14.01429827,15.3624 z m 0.02808,-5.0834 c -4.7463257,0 -7.83565,-3.7352 -7.83565,-10.279 v -0.056 c 0,-6.4594 3.1174091,-10.1947 7.77948,-10.1947 4.746326,0 7.83565,3.7353 7.83565,10.1947 v 0.056 c 0,6.5157 -3.033155,10.279 -7.77948,10.279 z"
           style="font-weight:500;-inkscape-font-specification:'SF Pro Display Medium'"
           id="path5748" /><path
           d="m 44.126569,1065.4886 c 8.453515,0 14.014299,-5.8416 14.014299,-15.3624 v -0.056 c 0,-9.4645 -5.616954,-15.2781 -14.042383,-15.2781 -8.397346,0 -13.986214,5.8417 -13.986214,15.2781 v 0.056 c 0,9.4927 5.532699,15.3624 14.014298,15.3624 z m 0.02808,-5.0834 c -4.746325,0 -7.83565,-3.7352 -7.83565,-10.279 v -0.056 c 0,-6.4594 3.117409,-10.1947 7.779481,-10.1947 4.746325,0 7.835649,3.7353 7.835649,10.1947 v 0.056 c 0,6.5157 -3.033154,10.279 -7.77948,10.279 z"
           style="font-weight:500;-inkscape-font-specification:'SF Pro Display Medium'"
           id="path5750" /><path
           d="m 61.442521,1064.8988 h 6.066309 v -10.6441 l 2.527629,-2.4996 10.026261,13.1437 h 7.049277 l -12.61006,-16.7947 12.132619,-12.7505 h -7.133531 l -11.851771,12.6101 H 67.50883 v -23.5912 h -6.066309 z"
           style="font-weight:500;-inkscape-font-specification:'SF Pro Display Medium'"
           id="path5752" /><path
           d="m 99.051405,1064.8988 h 6.290985 v -13.8458 h 8.79053 c 7.94799,0 13.45261,-5.4203 13.45261,-13.3402 v -0.056 c 0,-7.948 -5.50462,-13.2841 -13.45261,-13.2841 H 99.051405 Z m 13.508775,-35.2183 c 5.47653,0 8.62202,2.9489 8.62202,8.0042 v 0.056 c 0,5.0834 -3.14549,8.0323 -8.62202,8.0323 h -7.21779 v -16.0926 z"
           style="font-weight:500;-inkscape-font-specification:'SF Pro Display Medium'"
           id="path5754" /><path
           d="m 130.63443,1064.8988 h 6.06631 v -17.6091 c 0,-4.4094 2.41529,-6.9651 6.31908,-6.9651 1.17956,0 2.24678,0.1405 2.72422,0.3371 v -5.6451 c -0.47744,-0.084 -1.23573,-0.2247 -2.10636,-0.2247 -3.37017,0 -5.84163,2.1626 -6.79651,5.617 h -0.14043 v -5.0553 h -6.06631 z"
           style="font-weight:500;-inkscape-font-specification:'SF Pro Display Medium'"
           id="path5756" /><path
           d="m 159.21238,1065.4886 c 8.45352,0 14.0143,-5.8416 14.0143,-15.3624 v -0.056 c 0,-9.4645 -5.61695,-15.2781 -14.04238,-15.2781 -8.39735,0 -13.98621,5.8417 -13.98621,15.2781 v 0.056 c 0,9.4927 5.5327,15.3624 14.01429,15.3624 z m 0.0281,-5.0834 c -4.74633,0 -7.83565,-3.7352 -7.83565,-10.279 v -0.056 c 0,-6.4594 3.11741,-10.1947 7.77948,-10.1947 4.74633,0 7.83565,3.7353 7.83565,10.1947 v 0.056 c 0,6.5157 -3.03316,10.279 -7.77948,10.279 z"
           style="font-weight:500;-inkscape-font-specification:'SF Pro Display Medium'"
           id="path5758" /></g></g></g></svg>
